<svg width="38" height="36" viewBox="0 0 38 36" fill="none" xmlns="http://www.w3.org/2000/svg">
<path d="M15.009 0.00692396C12.8447 0.0706877 10.7151 0.567986 8.74647 1.46963C6.77781 2.37093 5.01008 3.65812 3.54798 5.25522C2.11571 6.81953 1.3797 8.8981 1.50785 11.0151C1.63627 13.1321 2.61777 15.1067 4.22853 16.4868C4.71689 16.9058 5.32411 17.1623 5.96538 17.2201C6.60629 17.2782 7.24959 17.1349 7.80558 16.8101C8.44203 16.438 9.19376 16.3146 9.91573 16.4639C10.638 16.6132 11.2792 17.0244 11.7163 17.6182C12.1462 18.204 12.7627 18.6262 13.4644 18.8154C14.1661 19.0043 14.9113 18.9492 15.5772 18.6584C17.8772 17.6542 19.9495 16.1942 21.669 14.3662C23.3882 12.5385 24.7192 10.3807 25.5809 8.02385C25.9826 6.92438 25.9787 5.71797 25.5699 4.62117C25.1614 3.52437 24.3748 2.60934 23.3519 2.04054C20.8046 0.624058 17.9221 -0.0785376 15.0086 0.00696993L15.009 0.00692396ZM12.1775 3.0363C12.7368 3.0214 13.2782 3.23325 13.679 3.62358C14.0797 4.01391 14.3056 4.54967 14.305 5.10924C14.316 5.66554 14.1024 6.20276 13.7129 6.60025C13.3232 6.99743 12.7901 7.22119 12.2335 7.22119C11.6772 7.22119 11.1442 6.99743 10.7544 6.60025C10.365 6.20277 10.1514 5.66554 10.1624 5.10924C10.1618 4.56904 10.3722 4.05028 10.7488 3.66324C11.1251 3.27619 11.6379 3.05124 12.1775 3.03633L12.1775 3.0363ZM19.0553 3.15638C19.6149 3.14059 20.1572 3.35214 20.5583 3.74247C20.9596 4.13309 21.1858 4.66909 21.1855 5.22897C21.1962 5.78526 20.9829 6.32279 20.5931 6.71997C20.2034 7.11715 19.6703 7.34122 19.114 7.34122C18.5574 7.34122 18.0244 7.11715 17.6346 6.71997C17.2452 6.32279 17.0315 5.78526 17.0426 5.22897C17.042 4.68936 17.252 4.17092 17.6281 3.78388C18.0038 3.39684 18.516 3.17188 19.0553 3.15638H19.0553ZM6.28033 7.06981C6.8405 7.05313 7.38338 7.26438 7.78506 7.65501C8.18701 8.04534 8.41346 8.58194 8.41287 9.14243C8.41287 9.88286 8.01777 10.5673 7.37656 10.9373C6.73535 11.3077 5.94513 11.3077 5.30394 10.9373C4.66273 10.5673 4.26762 9.88286 4.26762 9.14243C4.26703 8.60282 4.47709 8.08438 4.85312 7.69734C5.22885 7.31029 5.74107 7.08504 6.28035 7.06984L6.28033 7.06981ZM11.1868 10.3912C11.7461 10.3754 12.2878 10.5866 12.6891 10.9764C13.0902 11.3664 13.3166 11.9019 13.3169 12.4614C13.3277 13.0177 13.1143 13.555 12.7246 13.9524C12.3351 14.3496 11.8021 14.5734 11.2455 14.5734C10.6892 14.5734 10.1558 14.3496 9.76637 13.9524C9.37664 13.555 9.16331 13.0177 9.17403 12.4614C9.17433 11.9221 9.38469 11.4046 9.76042 11.0181C10.1361 10.6314 10.6481 10.4067 11.1867 10.3912L11.1868 10.3912Z" fill="white"/>
<path d="M3.03494 31.4963C3.31861 30.2308 4.02091 29.0982 5.02862 28.2818C6.03602 27.4654 7.28957 27.0128 8.5863 26.9973L10.9518 30.8175V30.8178C9.66853 32.4268 7.97043 33.6549 6.04052 34.3703C4.11061 35.0857 2.0222 35.2609 0 34.8775C1.53151 34.3557 2.68101 33.0748 3.03502 31.4962L3.03494 31.4963Z" fill="white"/>
<path d="M9.96863 26.6938L35.3966 10.9478L37.3766 14.1455L11.9486 29.8908L9.96863 26.6938Z" fill="white"/>
</svg>
