<svg width="45" height="34" viewBox="0 0 45 34" fill="none" xmlns="http://www.w3.org/2000/svg">
<path d="M31.9625 21.7796C32.1963 22.1536 32.3365 22.6208 32.3831 23.0883C32.4297 23.4156 32.4297 23.7426 32.3831 24.07C33.5049 23.6494 34.6264 23.3221 35.7948 23.0883L37.5241 20.5646C35.6081 20.7514 33.7387 21.1254 31.9625 21.7797L31.9625 21.7796Z" fill="white"/>
<path d="M38.5993 18.9286L41.1229 15.1896C41.1695 15.1896 41.1695 15.1429 41.2165 15.096L41.2168 10.1888C41.2168 9.86147 40.9364 9.5811 40.6091 9.5811H39.8146H39.768V8.59945C39.768 8.27213 39.4876 7.99176 39.1603 7.99176C36.2627 7.99176 33.4583 8.55251 30.7943 9.67431C28.1301 8.55253 25.326 7.99176 22.4283 7.99176C22.1009 7.99176 21.8206 8.27214 21.8206 8.59945V9.5811H21.0261C20.6988 9.5811 20.4184 9.86148 20.4184 10.1888V13.9745C21.1663 14.4886 21.7736 15.2365 22.1945 16.0776C22.3347 16.3579 22.5218 16.7319 22.7086 17.1993C22.8488 17.4331 22.9424 17.6669 22.989 17.9003L22.9887 9.20709C25.4191 9.25371 27.8492 9.81478 30.1861 10.7029V20.1438C30.6536 20.3307 31.0742 20.658 31.4012 21.0785L31.4015 10.7495C33.7384 9.81484 36.1219 9.30073 38.5989 9.25374L38.5993 18.9286Z" fill="white"/>
<path d="M28.4105 12.9462C28.4571 12.9462 28.504 12.9928 28.5973 12.9928C28.8777 12.9928 29.1114 12.806 29.158 12.5723C29.2516 12.245 29.0645 11.918 28.7375 11.8244C27.4288 11.4505 26.1203 11.1701 24.8116 11.0299C24.4843 11.0299 24.2039 11.2167 24.1573 11.544C24.1573 11.6842 24.2039 11.8714 24.2975 11.9646C24.391 12.1048 24.5312 12.1514 24.6714 12.1984C25.9334 12.3385 27.1954 12.5723 28.4105 12.9462L28.4105 12.9462Z" fill="white"/>
<path d="M24.2976 14.2081C24.3911 14.3483 24.5313 14.3949 24.6715 14.4419C25.9335 14.5821 27.1952 14.8158 28.4106 15.1898C28.4572 15.1898 28.5042 15.2364 28.5974 15.2364C28.8778 15.2364 29.0649 15.0496 29.1581 14.8158C29.2517 14.4885 29.0646 14.1615 28.7376 14.0679C27.4756 13.694 26.1204 13.4136 24.8117 13.2734C24.4844 13.2268 24.204 13.4603 24.1574 13.7876C24.1108 13.9278 24.1574 14.1149 24.2976 14.2081L24.2976 14.2081Z" fill="white"/>
<path d="M24.2976 16.4983C24.3911 16.6385 24.5313 16.6851 24.6715 16.732C25.9335 16.8722 27.1952 17.106 28.4106 17.4799C28.4572 17.4799 28.5042 17.5265 28.5974 17.5265C28.8778 17.5265 29.0649 17.3397 29.1581 17.106C29.2517 16.7786 29.0646 16.4517 28.7376 16.3581C27.4756 15.9842 26.1204 15.7038 24.8117 15.5636C24.4844 15.5636 24.204 15.7504 24.1574 16.0777C24.1108 16.2179 24.1574 16.3581 24.2976 16.4983L24.2976 16.4983Z" fill="white"/>
<path d="M24.2976 18.7417C24.3911 18.8819 24.5313 18.9285 24.6715 18.9755C25.9335 19.1156 27.1952 19.3494 28.4106 19.7233C28.4572 19.7233 28.5042 19.77 28.5974 19.77C28.8778 19.77 29.0649 19.5831 29.1581 19.3494C29.2517 19.0221 29.0646 18.6951 28.7376 18.6015C27.4756 18.2276 26.1204 17.9472 24.8117 17.807C24.4844 17.7604 24.204 17.9938 24.1574 18.3212C24.1108 18.4613 24.1574 18.6015 24.2976 18.7417L24.2976 18.7417Z" fill="white"/>
<path d="M36.9167 11.03H36.8701C35.5614 11.1702 34.2059 11.4505 32.9442 11.8245C32.804 11.8711 32.6638 11.9647 32.5703 12.1048C32.4767 12.245 32.4767 12.3852 32.5237 12.5724C32.6172 12.8061 32.851 12.9929 33.0844 12.9929C33.131 12.9929 33.178 12.9929 33.2712 12.9463C34.4863 12.5724 35.7483 12.3386 37.0103 12.1984C37.1505 12.1984 37.2907 12.1049 37.4309 11.9647C37.5244 11.8245 37.5711 11.6843 37.5711 11.5441C37.4778 11.2168 37.2441 11.03 36.9167 11.03L36.9167 11.03Z" fill="white"/>
<path d="M36.87 13.2734C35.5613 13.4136 34.2058 13.6939 32.9441 14.0679C32.8039 14.1145 32.6637 14.2081 32.5702 14.3483C32.4766 14.4884 32.4766 14.6286 32.5235 14.8158C32.6171 15.0495 32.8509 15.2363 33.0843 15.2363C33.1309 15.2363 33.1779 15.2363 33.2711 15.1897C34.4862 14.8158 35.7482 14.582 37.0102 14.4418C37.1504 14.4418 37.2906 14.3483 37.4307 14.2081C37.5243 14.0679 37.5709 13.9277 37.5709 13.7875C37.4777 13.4605 37.1973 13.2268 36.87 13.2734H36.87Z" fill="white"/>
<path d="M36.87 15.5168C35.5613 15.657 34.2058 15.9373 32.9441 16.3113C32.8039 16.3579 32.6637 16.4515 32.5702 16.5917C32.4766 16.7318 32.4766 16.872 32.5235 17.0592C32.6171 17.2929 32.8509 17.4797 33.0843 17.4797C33.1309 17.4797 33.1779 17.4797 33.2711 17.4331C34.4862 17.0592 35.7482 16.8254 37.0102 16.6852C37.1504 16.6852 37.2906 16.5917 37.4307 16.4515C37.5243 16.3113 37.5709 16.1711 37.5709 16.0309C37.4777 15.7036 37.1973 15.5168 36.87 15.5168H36.87Z" fill="white"/>
<path d="M36.87 17.7602C35.5613 17.9004 34.2058 18.1808 32.9441 18.5547C32.8039 18.6013 32.6637 18.6949 32.5702 18.8351C32.4766 18.9753 32.4766 19.1154 32.5235 19.3026C32.6171 19.5363 32.8509 19.7231 33.0843 19.7231C33.1309 19.7231 33.1779 19.7231 33.2711 19.6765C34.4862 19.3026 35.7482 19.0688 37.0102 18.9286C37.1504 18.9286 37.2906 18.8351 37.4307 18.6949C37.5243 18.5547 37.5709 18.4145 37.5709 18.2743C37.4777 17.9939 37.1973 17.7602 36.87 17.7602H36.87Z" fill="white"/>
<path d="M37.3382 22.8488L40.8161 17.6968L43.0627 19.2134L39.5848 24.3654L37.3382 22.8488Z" fill="white"/>
<path d="M44.2078 16.7787L42.6188 15.7038C42.432 15.5637 42.1982 15.6103 42.058 15.7974L41.4037 16.7791L43.647 18.2748L44.3013 17.2932C44.4412 17.1527 44.3946 16.9189 44.2078 16.7787H44.2078Z" fill="white"/>
<path d="M36.4026 24.3034C36.356 24.3501 36.356 24.4436 36.356 24.5372L36.3094 26.3133C36.3094 26.5937 36.5897 26.8274 36.8701 26.6873L38.5061 25.9863C38.5527 25.9397 38.6463 25.8928 38.6929 25.8461L39.0668 25.2854L36.8235 23.7896L36.4026 24.3034Z" fill="white"/>
<path d="M18.5489 6.12254C18.5489 9.504 15.8077 12.2451 12.4263 12.2451C9.04485 12.2451 6.30377 9.50392 6.30377 6.12254C6.30377 2.74116 9.04493 0 12.4263 0C15.8078 0 18.5489 2.74116 18.5489 6.12254Z" fill="white"/>
<path d="M28.1768 21.3123C27.1486 21.4524 24.5779 21.546 23.2227 20.9383C22.4748 20.611 21.6337 18.6481 21.3064 17.8069C21.1196 17.3863 20.979 17.0124 20.8389 16.7787C20.2312 15.6102 19.0161 14.255 16.4454 14.255H8.68725C6.6777 14.255 5.13527 15.2367 4.06014 17.2462L3.82639 17.7137C2.79816 19.63 1.76985 21.5929 1.3493 23.0884C0.928733 24.6307 0.087298 29.0708 0.0406439 29.2579C-0.193111 30.5199 0.601394 31.7816 1.90998 32.0153C2.05017 32.062 2.2373 32.062 2.37749 32.062C3.49927 32.062 4.4806 31.2675 4.66772 30.1456C4.66772 30.099 5.55581 25.6587 5.92971 24.2568C6.0699 23.696 6.49046 22.808 6.91137 21.9666L6.58405 32.2021C6.53743 33.0432 7.23836 33.7444 8.07982 33.7444H16.773C17.6141 33.7444 18.2688 33.0435 18.2688 32.2021L17.9415 21.6861C18.6893 23.0414 19.7176 24.4906 21.26 25.1914C24.2045 26.5467 28.3642 26.0326 28.8314 25.9859C30.14 25.7991 31.0281 24.6307 30.8409 23.3217C30.6538 22.0601 29.4387 21.172 28.1767 21.3122L28.1768 21.3123Z" fill="white"/>
</svg>
