<svg width="48" height="48" viewBox="0 0 48 48" fill="none" xmlns="http://www.w3.org/2000/svg">
<path d="M25 16H22V28L31.5 33.7L33 31.24L25 26.5V16ZM34.674 3.62L43.888 11.31L41.328 14.38L32.108 6.69399L34.674 3.62ZM13.326 3.62L15.89 6.692L6.67401 14.38L4.11401 11.308L13.326 3.62ZM24 8C14.06 8 6.00001 16.06 6.00001 26C6.00001 35.94 14.06 44 24 44C33.94 44 42 35.94 42 26C42 16.06 33.94 8 24 8ZM24 40C16.28 40 10 33.72 10 26C10 18.28 16.28 12 24 12C31.72 12 38 18.28 38 26C38 33.72 31.72 40 24 40Z" fill="white"/>
</svg>
