<svg width="34" height="40" viewBox="0 0 34 40" fill="none" xmlns="http://www.w3.org/2000/svg">
<path d="M16.9082 10.5456C19.8151 10.5456 22.1806 8.18018 22.1806 5.2733C22.1806 2.36642 19.8151 0 16.9082 0C14.0004 0 11.6349 2.36642 11.6349 5.2733C11.6349 8.18018 14.0004 10.5456 16.9082 10.5456Z" fill="white"/>
<path d="M18.3007 15.3333L20.5257 23.1772H26.3571L26.7469 15.996C26.7875 15.2364 26.5325 14.5063 26.0233 13.9402C25.515 13.3737 24.8173 13.0383 24.0579 12.9969C24.0062 12.9941 23.9552 12.9922 23.9035 12.9922H19.4618L18.3007 15.3333Z" fill="white"/>
<path d="M7.45814 23.1773H13.2905L15.5156 15.3334L14.3542 12.9929H9.91247C8.34177 12.9929 7.06372 14.271 7.06372 15.8417C7.06372 15.8933 7.06465 15.9444 7.06743 15.996L7.45814 23.1773Z" fill="white"/>
<path d="M2.36082 23.639C2.40134 23.5697 2.43197 23.4939 2.43197 23.4079V10.7913L4.87046 9.75737C5.08857 9.97176 5.38805 10.1067 5.71695 10.1067C6.38397 10.1067 6.92848 9.56432 6.92848 8.89609C6.92848 8.22907 6.38521 7.68646 5.71695 7.68646C5.04994 7.68646 4.50733 8.2288 4.50733 8.89609C4.50733 8.8998 4.50919 8.90351 4.50919 8.90722L1.78978 10.0603C1.61869 10.1324 1.50793 10.3007 1.50793 10.4863V23.4086C1.50793 23.4946 1.53763 23.5704 1.57909 23.6397L0 23.6394L1.17992 29.3811H7.08991C7.18983 29.3811 7.27924 29.4457 7.30894 29.5419L10.4228 39.2709H23.3942L26.508 29.5419C26.5386 29.4457 26.6271 29.3811 26.7279 29.3811H32.637L33.8179 23.6394L2.36082 23.639Z" fill="white"/>
</svg>
