<svg width="52" height="33" viewBox="0 0 52 33" fill="none" xmlns="http://www.w3.org/2000/svg">
<path d="M14.8172 22.5959L15.0067 20.0328C15.0877 18.9691 15.5671 17.9753 16.3489 17.2496C17.1307 16.524 18.1573 16.12 19.2239 16.1183H27.0901L28.2456 7.57642H26.4589C24.7643 7.57585 23.1114 8.1 21.7267 9.07669C20.342 10.0534 19.2934 11.4347 18.725 13.0311V13.0942H17.3237H17.2794H17.2349C16.4157 13.2933 15.6748 13.733 15.1075 14.3568C14.8501 14.6361 14.637 14.9534 14.4761 15.2975C14.0318 15.1748 13.5733 15.1112 13.1125 15.108C12.0111 15.1086 10.9391 15.465 10.0568 16.1244L2.52517 21.756L0.738412 21.9518L0 22.9872L5.79568 26.9393L7.21604 25.885L6.22482 30.5885L4.88664 31.7375V33H13.094L14.849 22.6079L14.8172 22.5959ZM15.4487 15.6512C15.5003 15.54 15.5594 15.4324 15.6253 15.3294C15.6978 15.2184 15.7779 15.1131 15.8652 15.0135C16.1911 14.6552 16.5951 14.3764 17.0459 14.1992L17.4249 15.4618L15.2215 16.491H15.2212C15.2278 16.2148 15.2946 15.9432 15.417 15.6955L15.4487 15.6512Z" fill="white"/>
<path d="M33.9024 2.74672C32.7048 2.74387 31.5442 3.16017 30.6217 3.92369C29.6992 4.68694 29.0729 5.74923 28.8518 6.92621L27.5892 16.6237L19.2241 16.6234C18.2848 16.6239 17.3803 16.9795 16.6918 17.6189C16.0035 18.2581 15.5821 19.1337 15.5119 20.0704L15.3036 22.8861L14.6722 32.9875L34.4075 32.9878V2.74716L33.9024 2.74672Z" fill="white"/>
<path d="M25.9924 7.0709C26.93 7.0709 27.8291 6.69854 28.4922 6.03542C29.1553 5.37259 29.5277 4.4732 29.5277 3.5356C29.5277 2.59799 29.1554 1.69866 28.4922 1.03549C27.8291 0.372661 26.93 0 25.9924 0C25.0545 0 24.1555 0.372647 23.4923 1.03549C22.8292 1.6986 22.4568 2.59799 22.4568 3.5356C22.4568 4.4732 22.8292 5.37253 23.4923 6.03542C24.1554 6.69852 25.0545 7.0709 25.9924 7.0709ZM24.2057 1.74892C24.7603 1.19366 25.5419 0.927744 26.3205 1.02959C27.0989 1.13174 27.7854 1.58998 28.1784 2.26968C28.5715 2.94934 28.626 3.77309 28.3262 4.49843C28.026 5.22402 27.4056 5.76875 26.6476 5.97247C25.8894 6.1762 25.0797 6.01584 24.4565 5.5382C23.8334 5.06083 23.4676 4.32068 23.467 3.53574C23.4664 2.86578 23.7321 2.22291 24.2057 1.74899L24.2057 1.74892Z" fill="white"/>
<path d="M50.6268 15.9919H47.8237V0.000183105H38.398V12.2732H35.8094L35.8097 32.9873H51.1382V15.9919H50.6268ZM50.1218 17.9869H44.9889V17.002H50.1218V17.9869ZM50.1218 19.9882H44.9889V18.997H50.1218V19.9882ZM50.1218 21.9832H44.9889V20.9983H50.1218V21.9832ZM50.1218 23.9845H44.9889V22.9933H50.1218V23.9845ZM50.1218 25.9795L44.9889 25.9792V24.9946H50.1218V25.9795ZM50.1218 27.9808L44.9889 27.9805V26.9896H50.1218V27.9808ZM50.1218 29.9821L44.9889 29.9818V28.9909H50.1218V29.9821ZM36.8195 31.0173H40.0204V31.9769H36.8195V31.0173ZM41.0367 12.9993H46.8199V13.9905H41.0367V12.9993ZM43.985 19.9882H41.0367V18.997H43.985V19.9882ZM43.985 21.9832H41.0367V20.9983H43.985V21.9832ZM43.985 23.9845H41.0367V22.9933H43.985V23.9845ZM43.985 25.9795L41.0367 25.9792V24.9946H43.985V25.9795ZM41.0367 26.9896H43.985V27.9808L41.0367 27.9805V26.9896ZM43.985 17.9868H41.0367V17.0018H43.985V17.9868ZM40.0267 15.253V16.2126H36.8195V15.253H40.0267ZM37.8422 17.2227H40.0267V18.1825H36.8195V17.2227H37.8422ZM37.8422 19.1923H40.0267V20.1519L36.8195 20.1522V19.1926L37.8422 19.1923ZM37.8422 21.162H40.0267V22.0967H36.8195V21.1623L37.8422 21.162ZM37.8422 23.1316H40.0267V24.0975L36.8195 24.0981V23.1322L37.8422 23.1316ZM37.8422 25.1076H40.0267V26.0672L36.8195 26.0677V25.1081L37.8422 25.1076ZM37.8422 27.0772H40.0267V28.0368L36.8195 28.0377V27.0778L37.8422 27.0772ZM37.8422 29.0469H40.0267V30.0065L36.8195 30.0073V29.0415L37.8422 29.0469ZM41.0367 28.991H43.985V29.9822L41.0367 29.9819V28.991ZM50.1279 31.9773L44.9888 31.977V30.9923H50.1217L50.1279 31.9773ZM44.4837 15.9921H41.0367V15.0009H46.8198V15.9921H44.4837ZM39.433 1.01057L46.8135 1.01028V2.0015H39.4082L39.433 1.01057ZM39.433 3.01186L46.8135 3.01157V3.99651H39.4082L39.433 3.01186ZM39.433 5.00686L46.8135 5.00658V5.9978H39.4082L39.433 5.00686ZM39.433 7.00815L46.8135 7.00786V7.9928H39.4082L39.433 7.00815ZM39.433 9.00315L46.8135 9.00287V9.99409H39.4082L39.433 9.00315ZM39.433 11.0044L46.8135 11.0042V11.9954H39.4082L39.433 11.0044ZM37.8358 13.258H40.0202V14.2176H36.8194V13.258H37.8358ZM41.0366 31.9773V30.9926H43.9849V31.9776L41.0366 31.9773Z" fill="white"/>
</svg>
