<svg width="38" height="36" viewBox="0 0 38 36" fill="none" xmlns="http://www.w3.org/2000/svg">
<path d="M27.2763 26.2881V19.2675H24.4788C24.1679 17.5513 23.1966 16.1472 21.7977 15.3672C21.8755 15.0941 21.9143 14.8212 21.9143 14.548C21.9143 14.3141 21.8755 14.0801 21.8365 13.885C22.6135 13.5341 23.3131 13.027 23.8958 12.3639C24.3232 12.442 24.7119 12.4809 25.1002 12.4809C26.4603 12.4809 27.6647 12.0907 28.6361 11.2719C30.2292 9.98477 31.1615 7.6836 31.1615 5.07047C31.1615 4.09539 31.045 3.15925 30.8119 2.30112L30.6566 1.75509H26.6933C26.6546 1.36495 26.5768 0.975102 26.499 0.584933L26.3437 0H11.7343L11.579 0.584933C11.5012 0.975074 11.4237 1.36492 11.3847 1.75509H7.42139L7.26609 2.30112C7.033 3.15918 6.91646 4.09539 6.91646 5.07047C6.91646 7.64473 7.84905 9.98477 9.44188 11.2719C10.4133 12.0519 11.6177 12.4809 12.9777 12.4809C13.3664 12.4809 13.7548 12.442 14.1822 12.3639C14.8039 12.988 15.5032 13.4948 16.2415 13.885C16.2027 14.119 16.1637 14.3141 16.1637 14.548C16.1637 14.8212 16.2024 15.0941 16.2802 15.3672C14.8815 16.1472 13.9101 17.5513 13.5992 19.2675H10.8016V23.2068L0 23.207V36H38V26.2883L27.2763 26.2881ZM5.75077 32.4897H4.19672V29.6426H5.75077V32.4897ZM8.43183 32.4897H6.87777V29.6426H8.43183V32.4897ZM26.8102 3.78357V3.27644H29.4912C29.6077 3.82247 29.6465 4.4466 29.6465 5.07072C29.6465 7.21595 28.9082 9.04909 27.665 10.0631C26.9267 10.648 26.0331 10.9212 24.9839 10.9212C26.1496 9.04881 26.8101 6.59183 26.8101 3.78362L26.8102 3.78357ZM10.4134 10.063C9.16993 9.04903 8.4319 7.17675 8.4319 5.07066C8.4319 4.44655 8.47065 3.86164 8.5872 3.27639H11.2682V3.78351C11.2682 6.59172 11.9287 9.04905 13.0944 10.921C12.0065 10.96 11.1129 10.6479 10.4134 10.063L10.4134 10.063ZM20.9431 32.3337H17.4072V30.7737H18.4174V26.8735H19.9714V30.8127H20.9816V32.3338L20.9431 32.3337ZM15.1924 19.1507C15.542 17.8636 16.3968 16.8886 17.5625 16.4595L18.4951 16.1085L17.9511 15.2893C17.7958 15.0553 17.718 14.8213 17.718 14.5482C17.718 14.3142 17.7958 14.041 17.9124 13.8462L18.4176 12.9882L17.4462 12.715C14.2212 11.701 12.7837 7.48871 12.7837 3.78336C12.7837 3.00337 12.8615 2.22338 12.978 1.52118H21.7592C21.798 2.06721 21.837 2.61327 21.837 3.19817C21.837 6.7083 20.8656 9.59466 19.4281 10.2577L20.0886 11.6618C22.4975 10.5309 23.3523 6.39628 23.3523 3.19817C23.3523 2.61324 23.3135 2.06723 23.2745 1.52118H25.1007C25.2172 2.2231 25.295 3.00337 25.295 3.78336C25.295 7.48857 23.8575 11.701 20.6325 12.715L19.6999 13.0271L20.2051 13.8852C20.3217 14.0802 20.3994 14.3531 20.3994 14.5871C20.3994 14.8602 20.3217 15.1331 20.1664 15.3282L19.6224 16.1474L20.555 16.4984C21.7207 16.9274 22.5755 17.9025 22.9251 19.1896L15.1924 19.1507ZM29.9572 32.4897H28.4031V29.6426H29.9572V32.4897ZM32.6769 32.4897H31.1229V29.6426H32.6769V32.4897ZM35.2026 32.4897H33.6486V29.6426H35.2026V32.4897Z" fill="white"/>
</svg>
