<svg width="47" height="42" viewBox="0 0 47 42" fill="none" xmlns="http://www.w3.org/2000/svg">
<path d="M23.0383 0.011819C22.8689 0.0384857 22.7053 0.0932609 22.5539 0.173262L2.40587 10.3571H2.4055C2.15037 10.485 1.93559 10.6807 1.7846 10.9225C1.63361 11.1647 1.55252 11.4436 1.55 11.7286V16.022C1.55 16.4328 1.71324 16.827 2.00406 17.1175C2.29451 17.4079 2.68875 17.5712 3.09993 17.5712H5.16621V33.0651H1.54999C1.49629 33.0622 1.44223 33.0622 1.38854 33.0651C1.0062 33.1051 0.651958 33.286 0.395347 33.5721C0.138773 33.8586 -0.00213428 34.2302 2.44416e-05 34.6147V39.7794V39.779C2.44416e-05 40.1902 0.163266 40.5841 0.454085 40.8749C0.744534 41.1653 1.13878 41.3286 1.54996 41.3286H44.9458C45.357 41.3286 45.7512 41.1654 46.0417 40.8749C46.3325 40.5841 46.4957 40.1902 46.4957 39.779V34.6143V34.6147C46.4957 34.2035 46.3325 33.8096 46.0417 33.5188C45.7512 33.2284 45.357 33.0651 44.9458 33.0651H41.3296V17.5712H43.3959C43.807 17.5712 44.2013 17.408 44.4917 17.1175C44.7826 16.8271 44.9458 16.4328 44.9458 16.022V11.7286C44.9433 11.4436 44.8622 11.1647 44.7112 10.9225C44.5602 10.6803 44.3454 10.4847 44.0903 10.3571L23.9422 0.173271H23.9419C23.664 0.0294854 23.3487 -0.0267336 23.0381 0.0118282L23.0383 0.011819ZM23.248 3.28828L41.8462 12.6815V14.4729H4.64977V12.6815L23.248 3.28828ZM23.248 4.66017C20.9838 4.66017 19.115 6.5283 19.115 8.79173C19.115 11.0552 20.9838 12.9237 23.248 12.9237C25.5122 12.9237 27.381 11.0555 27.381 8.79173C27.381 6.5283 25.5122 4.66017 23.248 4.66017ZM23.248 7.75896C23.8368 7.75896 24.2811 8.20292 24.2811 8.79173C24.2811 9.38056 23.8368 9.8245 23.248 9.8245C22.6592 9.8245 22.2149 9.38053 22.2149 8.79173C22.2149 8.2029 22.6592 7.75896 23.248 7.75896ZM8.26609 17.5719H9.29924V33.0658H8.26609V17.5719ZM12.3991 17.5719H34.097V33.0658H28.9309V20.6707C28.9305 20.2595 28.7673 19.8656 28.4768 19.5748C28.186 19.2844 27.7918 19.1211 27.3809 19.1211H19.1149C19.0612 19.1182 19.0071 19.1182 18.9534 19.1211C18.5711 19.1611 18.2172 19.342 17.9606 19.6282C17.704 19.9146 17.5631 20.2862 17.5649 20.6707V33.0658H12.3988V17.5719L12.3991 17.5719ZM37.1968 17.5719H38.2299V33.0658H37.1968V17.5719ZM20.665 22.2203H25.8312V33.0665H20.665V22.2203ZM3.10001 36.1652H43.3962V38.2313H3.10001V36.1652Z" fill="white"/>
</svg>
