<svg width="500" height="500" viewBox="0 0 500 500" fill="none" xmlns="http://www.w3.org/2000/svg">
<path d="M285.12 250.29L491.96 43.44C496.694 38.7095 499.3 32.417 499.3 25.725C499.3 19.0297 496.694 12.741 491.96 8.00996C487.23 3.27556 480.937 0.670166 474.245 0.670166C467.553 0.670166 461.261 3.27566 456.53 8.00996L249.69 214.86L42.85 8.00996C33.0844 -1.75564 17.19 -1.75564 7.42 8.00996C2.6856 12.7444 0.0802002 19.033 0.0802002 25.729C0.0802002 32.4204 2.6857 38.713 7.42 43.444L214.26 250.284L7.42 457.124C2.6856 461.854 0.0802002 468.147 0.0802002 474.839C0.0802002 481.534 2.6857 487.823 7.42 492.554C17.1856 502.32 33.08 502.32 42.85 492.554L249.69 285.714L456.53 492.554C461.261 497.288 467.553 499.894 474.245 499.894C480.94 499.894 487.229 497.288 491.96 492.554C496.694 487.823 499.3 481.531 499.3 474.839C499.3 468.147 496.694 461.855 491.96 457.124L285.12 250.29Z" fill="white"/>
</svg>
