<svg width="548" height="548" viewBox="0 0 548 548" fill="none" xmlns="http://www.w3.org/2000/svg">
<path d="M278.92 368.83L338.092 299.814L398.358 370.033V169.873H149.528V373.853L215.59 261.743L278.92 368.83ZM288.217 250.81C301.014 250.81 311.405 261.201 311.405 273.998C311.405 286.795 301.014 297.186 288.217 297.186C275.42 297.186 265.029 286.795 265.029 273.998C265.029 261.201 275.42 250.81 288.217 250.81Z" fill="white"/>
<path d="M274 0.5625C122.95 0.5625 0.559998 122.952 0.559998 274.003C0.559998 425.053 122.95 547.443 274 547.443C425.05 547.443 547.44 425.053 547.44 274.003C547.44 122.952 425.05 0.5625 274 0.5625V0.5625ZM410.72 390.263H137.28V157.512H410.72V390.263Z" fill="white"/>
</svg>
