<svg width="507" height="507" viewBox="0 0 507 507" fill="none" xmlns="http://www.w3.org/2000/svg">
<path d="M499.82 192.9C493.804 168.072 483.851 144.064 470.617 122.244C457.601 100.752 441.25 81.0101 422.492 64.3301C403.625 47.5411 382.297 33.4321 359.219 22.9861C334.774 11.9391 309.18 4.88407 282.547 1.71307C256.024 -1.40412 229.063 -0.0369234 202.977 5.21308C177.711 10.299 153.211 19.5411 130.735 32.0651C108.751 44.3151 88.516 60.0101 71.126 78.2211C53.736 96.4321 38.915 117.377 27.649 139.909C16.165 163.042 7.96099 187.815 4.07899 213.354C2.11019 226.479 0.797791 239.713 0.797791 253.002C0.797791 279.307 4.95399 305.775 13.1028 330.822C20.9778 354.994 32.4618 378.072 47.2278 398.799C62.3218 420.018 80.3688 438.557 100.986 454.416C121.166 469.893 143.697 482.033 167.541 490.838C192.096 499.861 218.236 504.838 244.377 505.822C270.791 506.861 297.588 503.689 323.018 496.47C347.518 489.525 371.088 478.806 392.362 464.806C413.417 450.97 432.503 434.126 448.526 414.658C465.206 394.424 478.495 372.166 488.448 347.939C498.401 323.822 504.198 298.119 506.221 272.142C508.299 245.673 506.057 218.712 499.822 192.9L499.82 192.9ZM194.28 167.525C194.335 166.65 194.444 165.775 194.553 164.9V164.736C194.335 165.994 194.827 162.439 194.553 164.736C194.553 164.681 194.553 164.572 194.608 164.463C194.936 162.603 195.264 160.798 195.702 158.994C196.468 155.713 197.616 152.65 198.764 149.478C198.874 149.259 198.928 149.041 199.038 148.822C199.421 148.056 199.749 147.291 200.132 146.525C200.952 144.939 201.827 143.353 202.757 141.822C203.632 140.4 204.561 138.978 205.491 137.611C205.6 137.447 205.764 137.119 205.983 136.791C206.038 136.736 206.147 136.627 206.366 136.353C206.694 135.97 206.968 135.588 207.296 135.259C209.483 132.58 211.944 130.119 214.515 127.822C215.171 127.275 216.1 126.127 217.03 125.416C216.921 125.58 217.14 125.58 217.577 125.252C217.85 125.033 218.179 124.814 218.452 124.595C219.218 124.049 220.038 123.502 220.804 122.955C223.702 121.041 226.765 119.345 229.936 117.924C230.155 117.814 230.374 117.705 230.647 117.595C231.358 117.322 232.015 117.049 232.725 116.775C234.311 116.174 235.952 115.681 237.593 115.189C239.233 114.697 240.929 114.314 242.624 113.986C243.499 113.822 244.319 113.658 245.194 113.494C245.468 113.439 245.686 113.439 245.796 113.385C243.772 113.603 246.89 113.166 245.796 113.385H246.014C249.569 113.002 253.124 112.838 256.678 113.002C258.428 113.056 260.233 113.221 261.983 113.385H262.202C262.257 113.385 262.311 113.385 262.421 113.439C263.405 113.603 264.389 113.767 265.374 113.986C268.764 114.697 272.046 115.627 275.272 116.775C276.092 117.049 276.858 117.432 277.678 117.705C277.624 117.65 277.569 117.65 277.514 117.596C277.733 117.705 277.897 117.76 278.007 117.76C277.952 117.76 277.842 117.705 277.733 117.65C277.897 117.76 278.007 117.814 278.116 117.814C279.756 118.58 281.397 119.4 282.928 120.275C284.296 121.041 285.608 121.861 286.921 122.681C287.632 123.119 288.342 123.611 288.999 124.103C289.272 124.267 290.694 125.197 290.913 125.361C290.858 125.361 290.749 125.306 290.53 125.142C289.108 124.267 291.296 125.744 291.678 126.072C292.335 126.619 292.936 127.166 293.592 127.713C294.905 128.916 296.217 130.174 297.475 131.431C298.569 132.525 299.608 133.728 300.592 134.877C300.975 135.314 302.014 136.244 302.178 136.791C302.014 136.517 300.702 134.767 301.796 136.299C302.069 136.682 302.342 137.064 302.616 137.447C304.639 140.291 306.444 143.299 307.975 146.361C308.358 147.127 308.741 147.892 309.069 148.658C309.233 148.986 309.343 149.314 309.507 149.642C310.108 150.736 309.069 148.658 309.124 148.713C310.053 149.424 310.655 152.76 310.983 153.853C312.077 157.299 312.843 160.744 313.499 164.298C313.499 164.353 313.499 164.462 313.553 164.517C313.663 165.337 313.718 166.158 313.827 166.978C313.991 168.892 314.046 170.806 314.046 172.72C314.046 174.525 313.991 176.275 313.827 178.08C313.772 178.955 313.663 179.83 313.553 180.705V180.923C313.772 179.775 313.335 182.837 313.553 180.978C313.553 181.142 313.499 181.306 313.444 181.525C312.897 184.916 312.077 188.306 310.983 191.587C310.436 193.228 309.835 194.814 309.233 196.399C309.233 196.454 309.233 196.454 309.178 196.454C309.069 196.618 309.014 196.728 309.014 196.728C308.632 197.603 308.194 198.478 307.757 199.353C306.225 202.36 304.475 205.204 302.561 207.993C302.233 208.431 300.921 210.563 301.741 209.196C302.507 207.829 301.194 209.907 300.811 210.345C299.663 211.712 298.46 213.024 297.202 214.337C296.108 215.431 295.014 216.524 293.866 217.563C293.264 218.11 292.608 218.657 291.952 219.204C291.678 219.423 291.405 219.696 291.132 219.915C290.968 220.024 290.147 220.626 290.038 220.681C290.092 220.681 290.257 220.571 290.585 220.353C291.952 219.532 289.819 220.899 289.382 221.173C288.671 221.665 288.014 222.157 287.303 222.595C285.772 223.579 284.241 224.509 282.655 225.384C281.288 226.149 279.866 226.86 278.444 227.517C278.007 227.735 277.569 227.899 277.132 228.118C276.038 228.665 278.116 227.681 278.061 227.735C277.679 228.282 275.983 228.556 275.327 228.774C272.1 229.923 268.764 230.853 265.429 231.564C264.554 231.728 263.733 231.892 262.858 232.056C262.64 232.11 262.475 232.11 262.311 232.165H262.421C264.28 231.946 260.725 232.439 262.311 232.165C260.452 232.384 258.593 232.548 256.733 232.603C253.069 232.767 249.46 232.548 245.795 232.165C245.741 232.165 245.686 232.165 245.631 232.11C244.756 231.946 243.936 231.837 243.061 231.673C241.256 231.29 239.452 230.853 237.647 230.36C236.006 229.868 234.366 229.376 232.78 228.775C232.069 228.501 231.412 228.228 230.756 228.009C230.592 227.954 230.483 227.9 230.373 227.845C230.209 227.79 230.1 227.681 230.045 227.681C226.873 226.204 223.811 224.509 220.913 222.595C220.202 222.157 219.545 221.665 218.834 221.173C218.452 220.9 216.155 219.478 217.631 220.353C219.053 221.173 216.811 219.696 216.483 219.423C215.772 218.821 215.006 218.165 214.295 217.564C211.835 215.321 209.483 212.915 207.35 210.345C207.022 209.962 205.545 207.774 206.42 209.196C207.295 210.618 205.764 208.321 205.6 207.993C204.616 206.626 203.741 205.204 202.866 203.782C201.991 202.361 201.17 200.884 200.405 199.353C200.022 198.587 199.639 197.821 199.311 197.056C199.202 196.782 199.038 196.509 198.928 196.181C197.834 192.954 196.631 189.892 195.811 186.556C195.374 184.86 195.045 183.165 194.772 181.47C194.717 181.251 194.717 181.032 194.663 180.923V181.032C194.881 182.837 194.444 179.665 194.663 180.868C194.553 179.939 194.444 178.954 194.389 177.97C194.006 174.689 194.006 171.079 194.28 167.525L194.28 167.525ZM348.61 366.365V375.662V376.318V377.139V377.904C348.61 378.014 348.555 378.178 348.501 378.342C348.337 379.162 348.008 379.982 347.79 380.803C347.79 380.857 347.79 380.912 347.735 380.967C348.665 379.326 347.407 382.334 347.735 380.967C347.68 381.021 347.68 381.076 347.626 381.185C347.243 381.896 346.751 382.607 346.368 383.373C346.313 383.482 346.258 383.537 346.204 383.646C346.04 383.81 345.93 383.92 345.876 383.974C345.219 384.685 344.563 385.287 343.852 385.943C345.329 385.178 342.594 387.092 343.852 385.943C343.743 385.998 343.633 386.053 343.469 386.107C342.813 386.49 342.157 386.873 341.446 387.256C341.665 387.146 341.884 387.037 341.884 387.092C341.884 387.146 341.555 387.365 341.282 387.474V387.584C341.063 387.584 340.899 387.638 340.844 387.693C340.954 387.638 341.118 387.474 341.282 387.42C340.954 387.529 340.626 387.584 340.571 387.584C339.86 387.803 338.712 387.857 338.001 388.131H337.673H336.798H333.79H199.86C190.29 388.131 180.719 388.295 171.149 388.131H169.618H169.563C169.235 388.131 168.852 387.967 168.852 387.967C168.032 387.748 167.211 387.42 166.391 387.201C166.063 387.037 165.79 386.873 165.735 386.818C165.571 386.709 164.75 386.271 164.204 385.943L164.149 385.888C163.875 385.67 163.602 385.396 163.383 385.178C162.782 384.631 162.235 384.029 161.688 383.428C161.415 382.99 161.141 382.498 161.086 382.443C160.977 382.279 160.649 381.732 160.321 381.185C160.376 381.404 160.43 381.513 160.43 381.568C160.43 381.513 160.321 381.295 160.266 381.076C160.266 381.131 160.321 381.131 160.321 381.185C160.321 381.076 160.266 380.967 160.211 380.857C160.102 380.529 159.993 380.146 159.883 379.818C159.829 379.654 159.61 378.834 159.446 378.232V378.013C159.446 377.521 159.391 376.974 159.391 376.482V374.787V347.99C159.391 341.099 159.336 334.209 159.391 327.318C159.446 325.185 159.555 323.052 159.774 320.974C159.774 320.974 159.829 320.919 159.883 320.81H159.938V320.154C159.938 320.154 159.883 320.154 159.883 320.099V319.771C160.047 318.787 160.211 317.857 160.376 316.873C161.196 312.88 162.29 308.888 163.821 305.115C163.875 305.005 163.985 304.677 164.149 304.294V304.349C164.094 304.458 164.04 304.568 164.04 304.622C164.094 304.458 164.258 304.185 164.368 303.912C164.313 303.966 164.313 304.076 164.258 304.13C164.641 303.365 164.969 302.544 165.352 301.779C166.282 299.865 167.321 298.005 168.415 296.146C169.399 294.56 170.438 292.974 171.532 291.497C171.586 291.388 171.915 291.005 172.133 290.677L171.969 290.841C171.86 290.951 171.805 291.06 171.751 291.115C171.86 290.951 172.133 290.622 172.297 290.404C172.243 290.458 172.188 290.568 172.079 290.677C172.79 289.802 173.501 288.927 174.211 288.107C176.782 285.209 179.571 282.529 182.524 280.122C182.743 279.958 182.907 279.794 183.016 279.685C181.868 280.505 183.946 278.865 183.071 279.685L183.126 279.63C184.001 279.029 184.821 278.373 185.751 277.771C186.243 277.443 186.735 277.115 187.172 276.787C188.485 275.912 189.797 275.037 191.11 274.216C194.172 272.357 197.29 270.607 200.516 269.021C202.649 267.927 204.836 266.888 207.024 265.958C207.461 265.74 207.899 265.576 208.336 265.412C208.063 265.521 207.844 265.63 207.571 265.74C207.461 265.794 207.407 265.794 207.407 265.794C207.79 265.63 209.649 264.81 208.719 265.247C208.61 265.302 208.501 265.357 208.391 265.412C209.758 264.865 211.18 264.318 212.547 263.771C218.344 261.583 224.305 259.779 230.32 258.412C233.711 257.646 237.156 256.99 240.601 256.443C240.711 256.443 240.82 256.388 240.875 256.388C240.547 256.443 240.383 256.443 240.328 256.443C240.383 256.443 241.312 256.279 241.422 256.279C241.367 256.279 241.258 256.333 240.93 256.388C241.805 256.279 242.625 256.169 243.5 256.115C245.469 255.896 247.492 255.732 249.461 255.622C253.18 255.404 256.953 255.404 260.727 255.513C262.75 255.568 264.719 255.732 266.742 255.896C267.672 256.005 268.656 256.115 269.586 256.224C269.75 256.224 269.914 256.333 270.133 256.333C270.188 256.333 270.406 256.279 270.789 256.333H271.117C279.758 257.755 288.179 259.997 296.328 263.224C296.766 263.388 297.203 263.552 297.641 263.771C297.531 263.716 297.422 263.661 297.367 263.607C297.531 263.661 297.75 263.771 297.914 263.88C297.805 263.88 297.75 263.826 297.696 263.771C298.735 264.263 299.774 264.701 300.758 265.138C302.836 266.122 304.914 267.161 306.938 268.255C311.532 270.716 315.961 273.505 320.282 276.458C321.047 277.005 321.813 277.552 322.579 278.099C322.579 278.099 322.633 278.099 322.633 278.154C322.524 278.044 322.415 277.99 322.305 277.88C322.086 277.716 322.032 277.661 322.032 277.607C322.086 277.607 322.852 278.208 322.961 278.318C322.961 278.318 322.852 278.263 322.688 278.154C322.907 278.318 323.071 278.482 323.235 278.591C324.93 279.958 326.516 281.38 328.102 282.857C329.469 284.169 330.782 285.482 332.094 286.849C332.696 287.505 336.469 291.005 336.25 291.771C336.25 291.771 335.704 291.005 335.54 290.841C335.54 290.896 335.649 291.005 335.758 291.169C336.086 291.607 336.415 292.044 336.688 292.482C337.235 293.247 337.782 294.013 338.274 294.833C339.477 296.638 340.571 298.443 341.555 300.357C342.43 301.997 343.25 303.693 344.071 305.443C344.071 305.497 344.125 305.497 344.125 305.552C344.071 305.333 344.016 305.279 344.016 305.224L344.344 305.935C344.344 305.935 344.289 305.771 344.125 305.552C344.18 305.716 344.235 305.88 344.344 306.154C344.727 307.138 345.11 308.177 345.438 309.216C346.094 311.185 346.641 313.154 347.133 315.122C347.352 316.052 347.571 316.982 347.735 317.966C347.789 318.349 347.899 318.786 347.954 319.169C347.954 319.224 348.008 319.607 348.063 319.99V319.771C348.063 319.825 348.118 319.935 348.118 320.208C348.172 320.482 348.172 320.646 348.172 320.755C348.118 320.646 348.118 320.372 348.063 320.044C348.118 320.591 348.282 321.849 348.282 322.122C348.391 323.107 348.446 324.091 348.446 325.075C348.5 326.115 348.555 327.208 348.555 328.247V335.958V366.364L348.61 366.365Z" fill="white"/>
</svg>
