<svg width="40" height="37" viewBox="0 0 40 37" fill="none" xmlns="http://www.w3.org/2000/svg">
<path d="M19.7877 22.3949C22.3415 22.3949 24.4192 20.3177 24.4192 17.7643C24.4192 15.2112 22.3417 13.1337 19.7877 13.1337C17.2347 13.1337 15.1575 15.2109 15.1575 17.7643C15.1575 20.3177 17.2347 22.3949 19.7877 22.3949ZM19.7877 14.4495C21.6155 14.4495 23.1029 15.9363 23.1029 17.7637C23.1029 19.5915 21.6155 21.078 19.7877 21.078C17.9603 21.078 16.4738 19.5911 16.4738 17.7637C16.4738 15.9366 17.9603 14.4495 19.7877 14.4495ZM39.5787 17.764C39.5787 16.7097 39.2035 15.704 38.5204 14.7696C38.8014 14.3332 38.9663 13.8153 38.9663 13.2596C38.9663 11.7146 37.7094 10.4574 36.1632 10.4574C35.3354 10.4574 34.5929 10.8203 34.0796 11.3932C33.4905 11.1107 32.8624 10.8469 32.1965 10.6027C33.0219 5.85372 32.2256 2.09398 29.6832 0.626496C28.9637 0.211488 28.1382 0.000313224 27.2311 0.000313224C25.0272 0.000313224 22.4108 1.27443 19.7895 3.46695C17.1669 1.27411 14.5512 0 12.3463 0C11.4386 0 10.6132 0.210563 9.89424 0.626182C8.98069 1.15351 8.29725 1.98288 7.82903 3.04184C7.78527 3.0397 7.74272 3.03297 7.69835 3.03297C7.20927 3.03297 6.72509 3.16273 6.29911 3.4085C5.65059 3.7831 5.18725 4.38692 4.9935 5.11047C4.79946 5.83398 4.89924 6.58869 5.27384 7.23726C5.67477 7.93139 6.35545 8.40882 7.12484 8.57194C7.17534 9.22352 7.26225 9.90082 7.38284 10.5995C2.85786 12.2598 0 14.8291 0 17.7645C0 20.701 2.86037 23.2709 7.38872 24.9307C7.30149 25.4335 7.2311 25.9281 7.17846 26.4132C6.72948 30.6174 7.69354 33.6321 9.89341 34.9023C10.6129 35.318 11.4384 35.5288 12.3455 35.5288C12.5653 35.5288 12.7905 35.5126 13.0173 35.4866C13.2551 35.9469 13.6202 36.3469 14.1007 36.6248C14.5267 36.8708 15.0106 37 15.4999 37C16.4989 37 17.4296 36.4635 17.9288 35.5983C18.3031 34.9503 18.4022 34.1956 18.2088 33.4721C18.1935 33.4146 18.1736 33.3598 18.1549 33.3041C18.6963 32.9304 19.2414 32.5157 19.7868 32.0597C22.4094 34.2525 25.0261 35.5275 27.2312 35.5275H27.2321C28.1389 35.5275 28.9638 35.3173 29.6839 34.902C31.8844 33.6319 32.8482 30.6164 32.3989 26.4121C32.3465 25.9276 32.2764 25.4336 32.1886 24.9314C36.7179 23.2705 39.5788 20.7006 39.5788 17.764L39.5787 17.764ZM36.1626 11.7728C36.9825 11.7728 37.6494 12.4396 37.6494 13.259C37.6494 14.0786 36.9825 14.7455 36.1626 14.7455C35.3433 14.7455 34.677 14.0786 34.677 13.259C34.6773 12.4397 35.3436 11.7728 36.1626 11.7728ZM27.2308 1.31628C27.9044 1.31628 28.5079 1.46778 29.0248 1.76557C31.0098 2.91174 31.5886 6.10658 30.9119 10.1685C29.1013 9.60905 27.0697 9.18578 24.8803 8.92597C23.5707 7.18365 22.1855 5.64048 20.7872 4.34623C23.1033 2.43467 25.3724 1.31663 27.2308 1.31663V1.31628ZM11.8775 22.3303C12.4351 23.2978 13.0217 24.2275 13.6299 25.1163C11.934 24.8531 10.3453 24.4852 8.90873 24.0329C9.23834 22.5443 9.71698 20.9914 10.3334 19.4124C10.7995 20.3802 11.3137 21.3546 11.8775 22.3303ZM8.92377 11.4899C10.3564 11.0403 11.9399 10.6743 13.6302 10.412C13.0221 11.3002 12.4351 12.2312 11.8775 13.198C11.3207 14.1615 10.8096 15.1338 10.3417 16.1064C9.72405 14.5107 9.24994 12.9562 8.92369 11.4899H8.92377ZM13.0169 21.6722C12.2637 20.3678 11.6002 19.0542 11.0263 17.7553C11.6054 16.4552 12.2708 15.1487 13.0169 13.8554C13.7649 12.5599 14.5704 11.3286 15.4108 10.1781C16.8205 10.0266 18.2874 9.9446 19.7902 9.9446C21.2929 9.9446 22.7589 10.0272 24.1676 10.179C25.0074 11.3286 25.812 12.5583 26.5594 13.8532C27.3065 15.1472 27.9718 16.4556 28.5515 17.7559C27.9767 19.0551 27.3132 20.3699 26.56 21.674C25.812 22.9695 25.0059 24.1995 24.1657 25.3494C22.7573 25.5003 21.2919 25.5823 19.7904 25.5823C18.287 25.5823 16.8202 25.4997 15.4108 25.3494C14.5702 24.1986 13.7649 22.9683 13.0169 21.6721V21.6722ZM27.6995 22.332C28.2639 21.3548 28.7765 20.38 29.2435 19.4117C29.8605 20.9912 30.3392 22.5447 30.6686 24.034C29.2326 24.4863 27.6433 24.8533 25.9474 25.1165C26.5552 24.2289 27.1413 23.2992 27.6995 22.332ZM29.2356 16.106C28.7679 15.1324 28.2562 14.1592 27.6992 13.1949C27.1419 12.2293 26.5561 11.2998 25.9489 10.4122C27.6395 10.676 29.223 11.0433 30.6545 11.4947C30.3285 12.9597 29.8538 14.5124 29.2356 16.1059L29.2356 16.106ZM19.789 5.21626C20.8972 6.23449 22.0051 7.42414 23.0723 8.74996C22.0069 8.671 20.911 8.62876 19.7905 8.62876C18.6676 8.62876 17.5716 8.67222 16.505 8.75088C17.5722 7.42474 18.6801 6.23517 19.7889 5.21631L19.789 5.21626ZM10.5524 1.76553C11.0693 1.46713 11.6726 1.31624 12.3465 1.31624C14.2054 1.31624 16.4742 2.43428 18.791 4.34616C17.3932 5.63955 16.009 7.18232 14.6997 8.92316C12.5108 9.18208 10.4789 9.60504 8.66773 10.1639C8.57438 9.60199 8.5046 9.0569 8.45962 8.53079C8.68243 8.46774 8.8988 8.37899 9.1011 8.26269C9.74962 7.88808 10.2139 7.28426 10.4076 6.56071C10.6011 5.83812 10.5019 5.08312 10.1273 4.43455C9.87818 4.00271 9.52102 3.65258 9.10141 3.41021C9.45184 2.6864 9.93112 2.12356 10.5524 1.7655L10.5524 1.76553ZM6.4137 6.57914C6.21538 6.23545 6.16274 5.83513 6.26527 5.45107C6.36749 5.0679 6.61355 4.74746 6.95664 4.54912C7.18311 4.41843 7.43959 4.34957 7.6982 4.34957C8.22858 4.34957 8.72253 4.6342 8.98727 5.09327C9.18559 5.43697 9.23823 5.83698 9.13571 6.22048C9.03318 6.60396 8.78681 6.9241 8.44342 7.12307C8.21694 7.25375 7.96077 7.32261 7.70247 7.32261C7.17209 7.32261 6.67845 7.03768 6.41371 6.57921L6.4137 6.57914ZM1.31638 17.7643C1.31638 15.4722 3.79323 13.374 7.6495 11.9288C8.06941 13.7752 8.71826 15.7437 9.58708 17.7676C8.73628 19.7567 8.08465 21.7249 7.65836 23.6022C3.79692 22.1574 1.31638 20.0582 1.31638 17.7643ZM16.7896 34.94C16.5245 35.3994 16.0309 35.6837 15.5005 35.6837C15.2416 35.6837 14.9854 35.6151 14.7598 35.485C14.0498 35.0743 13.8065 34.1635 14.2163 33.4541C14.4807 32.9956 14.975 32.7113 15.5044 32.7113C15.7637 32.7113 16.0198 32.7798 16.246 32.9108C16.59 33.1095 16.8361 33.4302 16.9383 33.8134C17.0408 34.1957 16.9882 34.5963 16.7895 34.94L16.7896 34.94ZM17.4604 32.195C17.2942 32.034 17.11 31.8893 16.904 31.7708C16.4777 31.5248 15.9941 31.3947 15.5038 31.3947C14.5058 31.3947 13.5751 31.9312 13.0756 32.7955C12.8216 33.235 12.7032 33.7161 12.7032 34.1908C12.5838 34.1997 12.4623 34.2122 12.346 34.2122C11.6724 34.2122 11.0688 34.0604 10.552 33.7626C8.85493 32.7833 8.10231 30.1549 8.48763 26.5529C8.52926 26.1621 8.58679 25.7637 8.6529 25.3599C10.4675 25.9212 12.5042 26.3454 14.6989 26.6053C16.0082 28.3449 17.3919 29.8871 18.789 31.1807C18.344 31.5486 17.8999 31.8883 17.4604 32.1949L17.4604 32.195ZM19.7867 30.3098C18.6784 29.2919 17.5715 28.1025 16.5049 26.7773C17.5721 26.8563 18.6683 26.8988 19.7907 26.8988C20.912 26.8988 22.0074 26.856 23.0731 26.7773C22.005 28.1041 20.8965 29.2909 19.7868 30.3098H19.7867ZM29.0264 33.7623C28.5095 34.0607 27.9059 34.2113 27.2326 34.2113H27.2317C25.3721 34.2113 23.1031 33.093 20.7868 31.1804C22.1846 29.8883 23.5676 28.3458 24.876 26.605C27.0718 26.3452 29.1096 25.921 30.9251 25.3596C30.9909 25.7633 31.0484 26.1618 31.09 26.5517C31.4753 30.1548 30.7228 32.782 29.0263 33.7623L29.0264 33.7623ZM31.9198 23.6036C31.4938 21.7269 30.8432 19.7593 29.9923 17.7717C30.8606 15.7502 31.5091 13.7826 31.9302 11.9381C32.4636 12.1391 32.9714 12.3512 33.4491 12.5765C33.3937 12.7953 33.3613 13.0239 33.3613 13.2602C33.3613 14.8055 34.6179 16.063 36.1632 16.063C36.674 16.063 37.1511 15.924 37.5634 15.6844C38.016 16.3501 38.2627 17.0475 38.2627 17.7655C38.2633 20.0585 35.7812 22.1577 31.9198 23.6035L31.9198 23.6036Z" fill="white"/>
</svg>
