<svg width="51" height="34" viewBox="0 0 51 34" fill="none" xmlns="http://www.w3.org/2000/svg">
<path d="M28.4035 2.50354C28.2885 2.50586 28.1808 2.55836 28.1082 2.64752C27.9094 2.89419 27.7164 3.1451 27.5284 3.39987C28.4413 6.14481 28.8447 9.03303 28.7193 11.9231C28.8061 11.9228 28.8922 11.9347 28.9752 11.959L33.8441 13.3664V13.3661C34.3077 13.5181 34.5675 14.0103 34.4316 14.4786C34.2957 14.9472 33.8132 15.224 33.3403 15.1047L28.573 13.7266C28.1202 17.4938 26.7715 21.0977 24.6391 24.2362C25.923 27.6224 28.0257 30.6379 30.7591 33.0138C31.1327 33.3381 31.6303 33.4813 32.1194 33.4056C37.7406 32.5425 42.8068 29.5292 46.2488 25.002C49.6905 20.4745 51.2396 14.787 50.5683 9.13937C50.549 8.98381 50.4382 8.85526 50.2873 8.8128L28.5181 2.51882C28.4807 2.50802 28.4417 2.50223 28.4027 2.503L28.4035 2.50354ZM39.7323 15.112C39.823 15.1105 39.9137 15.1225 40.001 15.1479L44.8698 16.5553C45.3358 16.7059 45.5979 17.1996 45.4612 17.6697C45.3246 18.1399 44.839 18.4163 44.3649 18.2935L39.496 16.8861H39.4956C39.0664 16.7611 38.7931 16.3411 38.8522 15.8975C38.9112 15.4544 39.2849 15.1205 39.7323 15.112L39.7323 15.112ZM32.6439 19.852V19.8524C34.2961 19.8388 35.92 20.2824 37.3356 21.1347C38.7511 21.9867 39.9033 23.2138 40.665 24.6803C40.8699 25.1208 40.6912 25.6446 40.2596 25.8681C39.8281 26.0917 39.2969 25.9353 39.0556 25.5134C38.1535 23.7767 36.579 22.4858 34.699 21.9423C32.8191 21.3988 30.7983 21.6501 29.1091 22.6379C28.6806 22.8587 28.1541 22.7051 27.9117 22.2886C27.6693 21.8721 27.7955 21.3386 28.1993 21.075C29.5488 20.2867 31.0809 19.8652 32.644 19.8525L32.6439 19.852Z" fill="white"/>
<path d="M23.7965 0.00627783C23.7888 0.00589184 23.781 0.00589184 23.7733 0.00627783L1.25311 2.48104C1.09561 2.49609 0.963212 2.60457 0.91728 2.75588C-0.710194 8.20494 -0.157392 14.0738 2.45908 19.1225C5.07555 24.1721 9.55142 28.0075 14.9421 29.8198C15.4111 29.9769 15.9257 29.9202 16.3487 29.6643C21.216 26.7236 24.7507 22.0077 26.2072 16.5103C27.664 11.0138 26.9287 5.1657 24.1567 0.200954C24.0857 0.072794 23.949 -0.00479036 23.8027 0.000229719L23.7965 0.00627783ZM21.8065 9.22741C22.2813 9.23668 22.6685 9.61189 22.6928 10.0863C22.7171 10.5607 22.3701 10.9734 21.8988 11.0313L16.8628 11.5852H16.8624C16.3741 11.6242 15.9437 11.2679 15.8904 10.7808C15.8375 10.294 16.1815 9.85316 16.6667 9.78603L21.7027 9.23209C21.737 9.23016 21.7718 9.23016 21.8065 9.23209L21.8065 9.22741ZM10.3957 10.4815C10.8705 10.4912 11.2577 10.866 11.2816 11.3404C11.3059 11.8152 10.9593 12.2275 10.488 12.2854L5.45081 12.837H5.45042C4.96211 12.876 4.5317 12.5197 4.47843 12.0326C4.42555 11.5458 4.76949 11.105 5.25472 11.0378L10.2919 10.4839C10.3262 10.482 10.361 10.482 10.3957 10.4839L10.3957 10.4815ZM20.1439 17.0434C20.4843 17.0318 20.8028 17.2129 20.9676 17.5113C21.1321 17.8101 21.1151 18.1756 20.9232 18.4578C19.4367 20.4083 17.2152 21.6644 14.7775 21.9323C12.3394 22.1998 9.89823 21.456 8.0241 19.8741C7.64233 19.5514 7.59446 18.9801 7.91718 18.5983C8.23989 18.2166 8.81119 18.1687 9.19295 18.4914C10.6888 19.754 12.6366 20.3481 14.5821 20.1343C16.528 19.9208 18.3006 18.9183 19.4865 17.3612C19.6513 17.1678 19.8899 17.0524 20.1439 17.0435L20.1439 17.0434Z" fill="white"/>
</svg>
