<svg width="21" height="21" viewBox="0 0 21 21" fill="none" xmlns="http://www.w3.org/2000/svg">
<path d="M20.2411 0H3.28906C3.08787 0 2.89478 0.0964475 2.75235 0.268271C2.61011 0.439876 2.53015 0.672806 2.53015 0.915742V3.05231H0.75891C0.557713 3.05231 0.364632 3.14875 0.222202 3.32058C0.0799532 3.49218 0 3.72511 0 3.96805V20.0843C0 20.3272 0.0799486 20.5601 0.222202 20.7317C0.364627 20.9035 0.557709 21 0.75891 21H17.7109C17.9121 21 18.1052 20.9036 18.2476 20.7317C18.3899 20.5601 18.4698 20.3272 18.4698 20.0843V17.9477H20.2411C20.4423 17.9477 20.6354 17.8512 20.7778 17.6794C20.92 17.5078 21 17.2749 21 17.032V0.915742C21 0.672811 20.9201 0.439882 20.7778 0.268271C20.6354 0.096453 20.4423 0 20.2411 0V0ZM15.2061 16.7572C15.1394 16.8964 15.0435 17.0121 14.9281 17.0925C14.8125 17.1728 14.6816 17.2152 14.5483 17.215H4.04818C3.86975 17.2152 3.69679 17.1394 3.55999 17.001C3.42322 16.8626 3.33126 16.6705 3.3002 16.4585C3.26914 16.2464 3.30108 16.028 3.39039 15.8415L6.17365 10.1947H6.17347C6.29578 9.94453 6.50933 9.77888 6.74881 9.74886C6.98848 9.71884 7.22552 9.82763 7.38803 10.0422L8.60246 11.66L10.7784 8.27191C10.9376 8.01641 11.1956 7.87972 11.4591 7.91081C11.7226 7.94211 11.9538 8.13671 12.0687 8.42457L15.2314 15.8722C15.3496 16.153 15.3401 16.4873 15.2061 16.7575L15.2061 16.7572ZM19.4821 16.0857H18.4701L18.4699 3.96801C18.4699 3.72507 18.39 3.49214 18.2477 3.32053C18.1053 3.14872 17.9122 3.05226 17.711 3.05226H4.0482V1.83145H19.4821L19.4821 16.0857Z" fill="white"/>
</svg>
